<?xml version="1.0" encoding="UTF-8" standalone="no"?>
<!DOCTYPE svg PUBLIC "-//W3C//DTD SVG 1.1//EN" "http://www.w3.org/Graphics/SVG/1.1/DTD/svg11.dtd">
<svg xmlns="http://www.w3.org/2000/svg" version="1.1" viewBox="0.00 0.00 1391.00 1180.00">
<g stroke-width="2.00" fill="none" stroke-linecap="butt">
<path stroke="#a4b2ce" vector-effect="non-scaling-stroke" d="
  M 847.25 954.07
  Q 852.57 952.86 857.95 952.27
  C 876.37 950.24 894.73 947.55 913.12 945.23
  Q 913.85 945.14 913.88 944.42
  L 914.03 941.07
  A 1.64 1.64 0.0 0 0 912.40 939.35
  Q 901.81 939.33 891.45 937.57"
/>
<path stroke="#a4b2ce" vector-effect="non-scaling-stroke" d="
  M 766.75 943.96
  Q 768.29 944.48 773.17 946.57
  Q 792.17 954.69 813.56 955.41
  Q 814.58 955.44 816.00 956.04"
/>
<path stroke="#a4b2ce" vector-effect="non-scaling-stroke" d="
  M 747.50 1068.84
  Q 743.23 1078.82 732.77 1079.10
  C 729.06 1079.20 727.40 1079.92 724.81 1082.18
  Q 724.38 1082.56 723.94 1082.19
  Q 722.98 1081.35 723.50 1080.29"
/>
<path stroke="#a4b2ce" vector-effect="non-scaling-stroke" d="
  M 633.40 1073.12
  Q 629.74 1077.82 628.47 1084.20
  Q 628.36 1084.75 627.80 1084.86
  C 621.74 1086.00 623.18 1079.79 618.57 1079.40
  Q 615.68 1079.16 615.00 1076.84"
/>
</g>
<path fill="#6480b8" d="
  M 847.25 954.07
  Q 852.57 952.86 857.95 952.27
  C 876.37 950.24 894.73 947.55 913.12 945.23
  Q 913.85 945.14 913.88 944.42
  L 914.03 941.07
  A 1.64 1.64 0.0 0 0 912.40 939.35
  Q 901.81 939.33 891.45 937.57
  C 910.95 937.28 928.93 938.74 948.20 942.77
  C 950.49 943.25 952.21 943.22 952.48 940.50
  Q 953.90 926.17 953.91 914.00
  Q 954.00 617.81 954.00 321.63
  C 954.00 319.53 953.09 317.45 950.75 317.75
  Q 881.23 326.55 818.31 328.30
  C 814.96 328.40 815.02 330.91 815.01 333.51
  Q 814.98 360.63 815.01 387.80
  A 2.02 2.02 0.0 0 0 816.27 389.67
  C 841.06 399.90 818.37 426.37 800.66 414.28
  C 793.87 409.66 796.18 398.76 801.17 393.85
  C 802.89 392.16 805.81 391.25 807.93 389.48
  Q 808.29 389.17 808.30 388.70
  L 809.32 331.25
  Q 809.33 330.66 808.82 330.38
  Q 807.31 329.53 804.75 329.66
  Q 677.00 336.04 542.00 327.95
  C 537.25 327.66 536.20 329.13 536.30 333.73
  Q 536.82 359.86 537.38 386.00
  C 537.51 391.83 548.49 394.08 548.28 401.22
  Q 547.77 418.18 530.78 417.25
  Q 525.78 416.97 521.60 413.38
  C 511.87 405.01 519.83 395.17 527.48 389.94
  Q 529.51 388.55 529.49 387.19
  Q 529.00 351.97 528.94 331.06
  C 528.93 328.31 527.70 327.07 524.92 326.82
  Q 466.75 321.49 408.49 316.26
  A 0.97 0.96 -87.6 0 0 407.44 317.24
  C 408.63 486.23 407.20 649.22 409.19 824.50
  C 409.41 843.94 410.84 862.58 409.50 882.23
  C 408.27 900.23 408.26 918.27 406.87 936.26
  C 406.31 943.42 418.71 940.77 422.02 938.62
  A 1.01 1.00 -42.6 0 0 422.09 936.99
  Q 415.11 931.53 413.21 923.01
  C 411.90 917.14 417.40 914.36 422.55 915.30
  Q 423.03 915.39 423.38 915.74
  C 432.39 924.95 442.11 933.04 454.26 936.26
  Q 457.60 937.15 468.91 939.29
  C 473.16 940.10 475.96 943.01 480.39 943.00
  C 486.74 943.00 496.98 941.83 502.80 943.94
  C 521.21 950.62 541.02 939.79 560.42 943.80
  A 0.43 0.42 -45.2 0 1 560.42 944.63
  L 554.15 946.03
  A 0.28 0.28 0.0 0 0 554.19 946.59
  Q 583.26 948.52 612.25 950.50
  C 618.69 950.94 621.41 947.43 627.90 951.23
  Q 628.33 951.49 628.83 951.49
  C 641.08 951.60 655.22 947.48 663.75 947.47
  Q 715.31 947.45 766.75 943.96
  Q 768.29 944.48 773.17 946.57
  Q 792.17 954.69 813.56 955.41
  Q 814.58 955.44 816.00 956.04
  L 815.76 956.36
  Q 815.51 956.70 815.09 956.67
  C 811.91 956.43 808.92 956.18 805.67 956.41
  Q 779.96 958.24 747.01 958.98
  C 736.16 959.23 737.60 969.31 738.18 976.56
  Q 738.64 982.30 737.83 1003.24
  C 736.95 1026.02 736.98 1047.17 740.35 1070.94
  C 741.09 1076.12 746.13 1070.82 747.50 1068.84
  Q 743.23 1078.82 732.77 1079.10
  C 729.06 1079.20 727.40 1079.92 724.81 1082.18
  Q 724.38 1082.56 723.94 1082.19
  Q 722.98 1081.35 723.50 1080.29
  L 724.48 1080.22
  Q 725.01 1080.18 725.24 1079.69
  Q 728.04 1073.61 728.93 1066.93
  Q 731.24 1049.39 731.68 1031.68
  Q 732.48 999.68 732.23 967.64
  C 732.17 959.58 728.10 959.68 721.00 959.55
  Q 676.97 958.78 632.94 958.19
  C 630.73 958.17 628.80 959.26 628.82 961.56
  Q 629.11 1011.16 629.28 1060.75
  C 629.28 1062.59 629.33 1064.50 630.09 1066.25
  Q 631.60 1069.73 633.40 1073.12
  Q 629.74 1077.82 628.47 1084.20
  Q 628.36 1084.75 627.80 1084.86
  C 621.74 1086.00 623.18 1079.79 618.57 1079.40
  Q 615.68 1079.16 615.00 1076.84
  Q 620.55 1068.37 621.17 1058.33
  C 621.61 1051.26 622.37 1043.78 622.49 1037.75
  Q 623.01 1011.38 621.78 975.94
  C 621.31 962.27 625.06 957.46 608.30 956.93
  Q 501.98 953.61 403.82 947.14
  C 400.88 946.95 399.16 945.21 398.04 942.41
  Q 391.02 924.95 387.91 916.82
  Q 387.07 914.65 385.08 913.91
  Q 369.88 908.23 354.73 902.44
  C 352.81 901.70 352.04 900.46 352.04 898.50
  Q 351.92 818.00 351.71 737.50
  Q 351.69 727.34 350.30 717.28
  C 349.83 713.88 346.97 713.22 344.74 715.61
  Q 328.77 732.74 313.37 749.51
  A 2.17 2.17 0.0 0 0 313.65 752.69
  Q 337.99 771.43 328.39 801.73
  Q 328.23 802.24 327.83 802.60
  C 326.62 803.69 324.67 804.88 323.45 803.28
  Q 323.13 802.86 323.27 802.34
  Q 330.56 774.98 309.90 756.86
  C 307.45 754.71 304.75 756.92 301.68 756.00
  C 298.89 755.17 296.98 752.30 294.25 752.00
  C 276.33 749.99 264.72 757.64 259.64 774.71
  C 254.16 793.09 264.09 805.93 276.05 817.70
  Q 276.40 818.06 276.53 818.54
  C 277.26 821.36 265.60 840.87 263.54 844.70
  C 261.65 848.21 261.69 849.98 264.67 852.58
  Q 294.48 878.66 405.80 977.45
  C 421.72 991.58 413.04 1020.41 389.82 1019.04
  C 381.69 1018.56 374.30 1015.46 366.73 1011.49
  C 282.45 967.30 197.65 924.12 114.33 878.04
  A 1.60 1.59 -59.1 0 1 113.77 875.78
  C 115.09 873.74 117.08 873.30 119.31 874.48
  Q 297.05 968.66 379.79 1011.99
  C 392.60 1018.70 408.87 1010.97 407.62 995.44
  C 407.02 987.99 402.31 983.27 396.99 978.50
  Q 327.31 915.89 257.48 853.44
  C 256.77 852.80 254.33 851.47 253.37 851.23
  Q 160.16 828.04 66.94 804.95
  C 58.94 802.97 51.12 806.86 47.46 813.84
  C 43.07 822.22 44.73 830.49 51.77 836.78
  C 61.66 845.63 73.69 850.98 85.28 856.66
  A 1.44 1.44 0.0 0 1 85.65 858.99
  L 84.14 860.46
  Q 83.67 860.91 83.07 860.66
  Q 68.51 854.76 55.02 846.83
  Q 45.99 841.51 42.83 837.09
  C 36.71 828.54 37.87 815.25 45.43 807.78
  C 52.55 800.74 65.14 798.56 74.70 801.02
  Q 162.95 823.73 251.27 846.16
  C 255.26 847.17 257.15 845.32 259.11 841.90
  Q 264.44 832.57 269.96 822.56
  A 2.02 2.01 -55.8 0 0 269.49 820.04
  C 231.26 787.97 260.61 740.18 305.51 748.34
  Q 306.35 748.49 307.95 747.17
  Q 328.50 730.24 344.08 708.77
  C 356.96 691.02 351.06 671.22 351.05 650.88
  Q 350.87 453.34 351.14 255.79
  C 351.15 250.75 351.96 245.68 352.70 240.74
  Q 353.06 238.28 355.57 238.18
  Q 413.91 235.83 472.25 233.48
  C 476.52 233.31 476.98 230.54 476.98 226.76
  Q 477.03 174.77 489.31 124.26
  C 492.23 112.24 496.34 100.24 502.16 89.50
  C 536.71 25.79 612.19 16.57 675.73 36.35
  C 712.32 47.74 732.60 75.76 746.57 109.84
  Q 746.75 110.28 747.13 110.57
  C 747.89 111.17 748.45 111.95 749.19 112.45
  C 789.63 139.96 804.71 183.30 810.17 230.27
  Q 810.57 233.71 814.31 233.90
  Q 859.53 236.13 904.75 238.27
  C 908.25 238.44 909.00 239.90 909.00 243.28
  Q 908.99 264.61 909.02 285.94
  C 909.02 288.56 911.32 290.77 913.84 291.80
  Q 936.37 301.01 958.91 310.15
  C 959.93 310.56 960.99 311.85 960.99 312.81
  Q 961.01 446.04 960.99 579.26
  C 960.99 591.79 964.59 602.18 970.71 613.06
  C 991.49 650.03 1028.37 672.01 1069.77 678.99
  C 1072.24 679.41 1073.32 679.51 1075.31 677.72
  C 1095.69 659.39 1119.30 657.50 1139.53 677.70
  C 1141.53 679.69 1141.82 684.25 1137.78 684.24
  Q 1137.24 684.24 1136.87 683.84
  Q 1132.76 679.26 1131.23 677.78
  C 1117.87 664.73 1097.71 660.90 1084.05 675.33
  C 1081.45 678.08 1082.34 680.82 1081.30 683.88
  Q 1081.14 684.36 1080.71 684.65
  C 1068.78 692.57 1072.24 705.15 1077.22 716.24
  C 1086.39 736.67 1106.12 739.11 1125.67 734.03
  C 1127.47 733.56 1129.59 734.31 1130.43 735.81
  Q 1137.41 748.33 1144.40 760.84
  Q 1145.23 762.32 1147.94 761.55
  Q 1238.32 735.98 1329.42 713.13
  C 1356.75 706.27 1375.94 737.29 1347.52 753.36
  Q 1188.56 843.28 1028.84 931.87
  C 1023.92 934.60 1021.15 936.39 1015.42 936.34
  C 987.57 936.06 981.13 912.19 999.93 894.43
  Q 1087.68 811.54 1135.93 767.18
  C 1138.07 765.21 1137.76 764.08 1136.39 761.63
  Q 1130.54 751.09 1124.65 740.58
  C 1122.75 737.19 1120.96 737.36 1117.29 738.28
  C 1083.84 746.67 1060.17 719.74 1069.22 687.46
  A 2.15 2.14 14.4 0 0 1067.64 684.80
  C 1026.21 675.19 989.90 656.22 966.55 619.41
  C 964.67 616.46 961.00 618.13 961.00 621.38
  Q 961.00 779.37 961.00 937.36
  C 961.00 944.60 958.99 945.58 952.52 946.48
  Q 910.47 952.35 868.01 953.48
  Q 857.63 953.75 847.25 954.07
  Z
  M 676.25 95.50
  C 694.88 96.29 708.01 98.89 729.01 102.96
  C 732.19 103.57 734.68 101.35 733.30 98.21
  C 722.05 72.74 700.02 48.17 672.75 40.27
  C 641.32 31.16 606.04 30.15 573.75 38.52
  C 525.66 51.00 502.30 89.16 492.68 134.94
  C 486.08 166.33 484.38 197.32 485.07 228.90
  C 485.12 231.19 486.14 233.46 488.57 233.47
  Q 508.00 233.53 527.45 233.49
  C 531.73 233.48 533.90 231.02 534.37 226.76
  Q 537.85 195.41 549.57 166.81
  C 570.51 115.67 623.60 93.26 676.25 95.50
  Z
  M 547.58 231.39
  C 617.52 231.95 689.33 231.59 752.19 231.18
  C 754.68 231.16 756.00 228.35 756.01 225.95
  Q 756.20 171.73 742.01 119.47
  C 741.21 116.52 738.98 113.45 736.48 112.22
  Q 716.56 102.50 692.25 99.99
  C 663.18 96.99 634.49 98.75 608.33 110.60
  C 563.35 130.97 544.95 178.46 540.92 224.38
  C 540.52 228.97 542.92 231.36 547.58 231.39
  Z
  M 767.31 232.65
  C 775.98 233.52 788.85 233.65 799.36 233.94
  C 803.81 234.07 803.29 231.35 802.89 228.15
  C 798.07 190.14 785.81 155.03 758.88 127.00
  C 754.64 122.58 751.89 126.36 752.82 131.20
  Q 761.93 178.57 762.92 226.81
  C 762.99 229.93 764.07 232.33 767.31 232.65
  Z
  M 538.75 323.42
  C 629.67 327.76 716.75 328.23 805.69 325.15
  C 809.14 325.03 808.88 322.69 808.75 320.01
  Q 805.91 259.99 804.92 241.81
  C 804.81 239.67 803.29 238.47 801.11 238.44
  C 715.26 237.24 622.63 234.98 543.50 237.17
  C 539.90 237.27 538.50 240.64 538.40 244.01
  Q 537.30 281.45 536.27 318.89
  C 536.20 321.48 535.69 323.28 538.75 323.42
  Z
  M 434.01 264.79
  Q 434.20 265.34 433.91 265.85
  Q 421.97 286.30 409.80 307.06
  C 408.92 308.54 410.51 309.98 412.06 310.24
  Q 458.43 317.81 505.37 319.99
  C 512.15 320.30 518.11 322.64 525.24 322.50
  Q 525.77 322.49 526.17 322.15
  C 528.17 320.47 527.65 318.85 527.75 316.56
  Q 529.40 278.66 531.03 240.75
  C 531.12 238.63 529.85 237.70 527.78 237.72
  Q 462.70 238.28 397.69 241.39
  C 395.28 241.50 387.14 241.76 387.78 245.59
  A 1.19 1.16 5.8 0 0 388.54 246.50
  Q 410.53 254.75 432.50 263.00
  Q 433.51 263.38 434.01 264.79
  Z
  M 829.02 262.45
  C 828.70 260.53 830.00 259.53 831.84 259.08
  C 844.21 256.03 857.06 253.37 868.92 248.65
  Q 872.87 247.08 876.02 244.20
  A 1.04 1.04 0.0 0 0 875.89 242.57
  Q 875.41 242.25 874.48 242.07
  C 855.52 238.43 835.68 239.35 816.44 238.95
  C 814.08 238.91 813.08 239.88 813.17 242.29
  Q 814.59 281.69 816.28 321.09
  C 816.38 323.47 817.22 324.22 819.56 324.11
  Q 878.25 321.32 936.38 313.20
  A 2.19 2.19 0.0 0 0 938.25 311.35
  C 938.81 307.53 929.88 303.92 927.07 302.82
  Q 880.19 284.56 833.56 265.69
  C 831.82 264.99 829.35 264.44 829.02 262.45
  Z
  M 896.83 284.85
  A 3.29 3.29 0.0 0 0 901.31 281.93
  L 902.71 248.38
  A 3.29 3.29 0.0 0 0 898.49 245.08
  L 848.82 259.81
  A 3.29 3.29 0.0 0 0 848.55 266.03
  L 896.83 284.85
  Z
  M 386.89 612.70
  C 391.66 611.07 391.51 619.87 391.07 622.58
  Q 389.66 631.21 386.60 639.40
  Q 375.86 668.12 360.42 694.60
  C 359.60 695.99 359.24 699.96 359.23 701.52
  Q 358.53 793.46 359.55 885.39
  C 359.65 894.88 359.48 900.37 370.25 902.27
  Q 372.89 902.74 375.14 903.67
  Q 385.84 908.07 396.49 912.49
  A 1.30 1.29 11.3 0 0 398.28 911.30
  C 398.76 820.46 398.23 729.64 398.60 638.81
  Q 399.21 486.65 398.95 334.50
  C 398.93 323.72 398.55 315.00 403.26 305.29
  Q 410.86 289.61 423.36 271.51
  C 425.20 268.85 424.71 266.01 421.33 264.92
  Q 392.83 255.76 364.30 246.69
  C 361.93 245.94 359.04 246.26 359.04 249.25
  Q 358.83 462.34 359.32 675.92
  A 1.72 1.42 2.9 0 0 360.89 677.35
  Q 361.63 677.41 362.53 676.04
  Q 380.85 648.11 385.75 615.00
  Q 385.89 614.03 386.19 613.34
  Q 386.40 612.87 386.89 612.70
  Z
  M 813.9021 413.8114
  A 10.26 8.33 79.6 0 0 820.2432 402.2163
  A 10.26 8.33 79.6 0 0 810.1979 393.6286
  A 10.26 8.33 79.6 0 0 803.8568 405.2237
  A 10.26 8.33 79.6 0 0 813.9021 413.8114
  Z
  M 534.5086 413.3908
  A 9.83 7.93 80.7 0 0 540.7458 402.4085
  A 9.83 7.93 80.7 0 0 531.3314 393.9892
  A 9.83 7.93 80.7 0 0 525.0942 404.9715
  A 9.83 7.93 80.7 0 0 534.5086 413.3908
  Z
  M 1115.46 792.61
  Q 1063.19 841.02 1011.14 889.65
  Q 1011.10 889.69 1007.15 893.11
  C 998.38 900.72 993.86 913.93 999.03 924.58
  C 1005.53 937.96 1020.00 931.83 1029.72 926.49
  Q 1183.00 842.20 1335.86 757.14
  C 1347.42 750.71 1359.43 740.99 1352.23 725.93
  C 1346.63 714.22 1335.84 713.92 1324.51 717.03
  Q 1243.72 739.16 1162.82 760.86
  Q 1152.24 763.70 1147.51 766.08
  C 1135.23 772.25 1125.22 783.57 1115.46 792.61
  Z"
/>
<circle fill="#6480b8" cx="797.03" cy="580.28" r="15.98"/>
<circle fill="#6480b8" cx="566.32" cy="589.28" r="15.74"/>
<path fill="#e4e4e4" d="
  M 772.63 614.62
  Q 772.28 606.86 777.41 600.93
  Q 778.53 599.64 779.69 600.37
  A 1.33 1.32 -82.0 0 1 780.26 601.13
  Q 782.28 607.94 784.15 614.76
  C 785.38 619.26 780.39 619.15 777.49 619.89
  C 772.67 621.12 772.78 618.15 772.63 614.62
  Z"
/>
<ellipse fill="#ff9c83" cx="0.00" cy="0.00" transform="translate(849.56,660.32) rotate(88.9)" rx="31.03" ry="22.01"/>
<ellipse fill="#ff9c83" cx="0.00" cy="0.00" transform="translate(515.48,668.39) rotate(89.6)" rx="30.75" ry="22.12"/>
<path fill="#6480b8" d="
  M 704.71 690.10
  C 654.04 684.39 606.54 702.83 569.14 736.69
  A 1.36 1.35 42.8 0 1 567.40 736.75
  C 566.13 735.76 566.22 734.72 567.36 733.63
  C 630.56 673.19 725.75 670.58 795.21 722.53
  Q 796.80 723.71 797.58 724.78
  A 1.60 1.60 0.0 0 1 796.76 727.25
  Q 793.78 728.18 791.71 726.52
  Q 753.27 695.57 704.71 690.10
  Z"
/>
<path fill="#e4e4e4" d="
  M 891.45 937.57
  Q 901.81 939.33 912.40 939.35
  A 1.64 1.64 0.0 0 1 914.03 941.07
  L 913.88 944.42
  Q 913.85 945.14 913.12 945.23
  C 894.73 947.55 876.37 950.24 857.95 952.27
  Q 852.57 952.86 847.25 954.07
  Q 831.99 957.17 816.44 955.83
  Q 816.32 955.82 816.23 955.90
  Q 816.13 955.99 816.00 956.04
  Q 814.58 955.44 813.56 955.41
  Q 792.17 954.69 773.17 946.57
  Q 768.29 944.48 766.75 943.96
  Q 766.86 943.50 767.15 943.25
  Q 767.54 942.91 768.00 943.14
  Q 769.74 944.01 771.76 943.83
  Q 830.30 938.64 889.08 938.20
  Q 889.59 938.19 889.94 937.82
  Q 890.60 937.11 891.45 937.57
  Z"
/>
<path fill="#e4e4e4" d="
  M 723.50 1080.29
  Q 722.98 1081.35 723.94 1082.19
  Q 724.38 1082.56 724.81 1082.18
  C 727.40 1079.92 729.06 1079.20 732.77 1079.10
  Q 743.23 1078.82 747.50 1068.84
  Q 757.05 1065.23 760.31 1065.02
  Q 768.14 1064.51 795.32 1065.44
  Q 873.79 1068.14 951.64 1078.08
  C 967.08 1080.06 975.18 1080.70 986.21 1086.80
  C 994.38 1091.32 976.84 1100.54 972.87 1102.21
  C 946.98 1113.04 917.03 1118.03 889.24 1120.63
  Q 755.83 1133.16 621.99 1126.51
  C 595.58 1125.19 569.67 1123.97 537.69 1122.04
  Q 455.45 1117.07 373.72 1106.73
  Q 365.98 1105.75 359.76 1103.99
  C 354.01 1102.36 349.18 1095.77 356.72 1092.01
  C 370.03 1085.35 382.67 1081.38 398.12 1078.81
  C 442.05 1071.50 486.27 1067.89 530.76 1066.34
  C 545.15 1065.83 560.23 1064.74 575.00 1064.32
  C 591.63 1063.85 604.94 1062.80 615.00 1076.84
  Q 615.68 1079.16 618.57 1079.40
  C 623.18 1079.79 621.74 1086.00 627.80 1084.86
  Q 628.36 1084.75 628.47 1084.20
  Q 629.74 1077.82 633.40 1073.12
  C 637.47 1069.91 642.50 1063.55 647.81 1063.53
  Q 663.88 1063.45 712.50 1063.51
  C 727.06 1063.53 716.95 1076.10 723.50 1080.29
  Z"
/>
</svg>
