<?xml version="1.0" encoding="UTF-8" standalone="no"?>
<!DOCTYPE svg PUBLIC "-//W3C//DTD SVG 1.1//EN" "http://www.w3.org/Graphics/SVG/1.1/DTD/svg11.dtd">
<svg xmlns="http://www.w3.org/2000/svg" version="1.1" viewBox="0.00 0.00 1000.00 618.00">
<g stroke-width="2.00" fill="none" stroke-linecap="butt">
<path stroke="#b0b375" vector-effect="non-scaling-stroke" d="
  M 594.48 27.78
  L 593.72 32.93"
/>
<path stroke="#fcd791" vector-effect="non-scaling-stroke" d="
  M 593.72 32.93
  L 604.57 318.78"
/>
<path stroke="#b0b375" vector-effect="non-scaling-stroke" d="
  M 604.74 322.24
  L 604.34 322.80
  Q 604.04 323.23 604.06 323.75
  Q 608.60 432.70 611.97 541.68
  Q 612.29 551.93 611.92 555.69
  Q 611.33 561.73 607.89 568.33"
/>
<path stroke="#b3dbe4" vector-effect="non-scaling-stroke" d="
  M 608.54 318.32
  Q 615.35 316.75 622.15 317.16
  Q 622.76 317.19 623.11 316.69
  Q 623.77 315.72 623.76 313.75
  Q 623.52 251.89 623.27 190.25
  A 2.24 2.24 0.0 0 1 625.51 188.00
  L 673.79 188.00
  Q 677.33 188.00 677.30 184.46
  L 676.89 136.94
  A 3.94 3.94 0.0 0 0 672.95 133.03
  L 627.00 132.99
  Q 623.51 132.98 623.54 129.50
  L 623.83 90.45
  A 2.47 2.47 0.0 0 1 626.30 88.00
  L 676.25 88.00
  A 3.75 3.75 0.0 0 0 680.00 84.25
  L 680.00 36.01
  Q 680.00 33.29 677.28 33.28
  L 593.72 32.93"
/>
<path stroke="#b3dbe4" vector-effect="non-scaling-stroke" d="
  M 787.89 232.28
  C 788.01 262.93 794.59 304.74 830.08 314.39
  C 854.30 320.97 878.72 316.51 892.95 294.39
  C 894.49 292.00 896.16 292.79 897.06 295.11
  Q 901.20 305.79 905.29 316.00
  A 1.59 1.58 79.0 0 0 906.76 317.00
  L 924.29 317.00
  A 3.54 3.53 -0.1 0 0 927.83 313.46
  L 927.49 152.34
  Q 927.48 149.69 924.84 149.72
  L 862.09 150.39
  A 3.05 3.04 -0.2 0 0 859.08 153.41
  L 858.78 196.11
  A 2.73 2.72 1.9 0 0 861.35 198.85
  L 871.23 199.41
  A 2.16 2.15 89.1 0 1 873.26 201.38
  Q 875.46 227.32 871.99 253.23
  C 870.05 267.73 850.12 270.41 846.52 256.00
  Q 844.49 247.88 844.03 235.50
  C 842.76 201.70 846.10 157.09 844.42 118.31
  C 844.05 109.97 842.97 96.18 847.41 89.48
  C 852.92 81.15 868.72 77.85 871.16 91.09
  C 873.29 102.62 873.30 115.10 872.96 127.16
  A 1.79 1.79 0.0 0 0 874.75 129.00
  L 926.50 129.00
  A 2.01 2.01 0.0 0 0 928.51 126.93
  C 927.33 89.49 924.87 45.78 881.49 33.27
  C 862.40 27.76 841.05 28.28 823.26 37.27
  C 792.98 52.57 787.24 86.72 787.40 117.50
  Q 787.69 174.89 787.89 232.28"
/>
<path stroke="#fcd791" vector-effect="non-scaling-stroke" d="
  M 130.98 449.20
  A 2.20 2.20 0.0 0 0 128.78 447.00
  L 38.32 447.00
  A 2.20 2.20 0.0 0 0 36.12 449.20
  L 36.12 455.80
  A 2.20 2.20 0.0 0 0 38.32 458.00
  L 128.78 458.00
  A 2.20 2.20 0.0 0 0 130.98 455.80
  L 130.98 449.20"
/>
<path stroke="#fcd791" vector-effect="non-scaling-stroke" d="
  M 224.89 506.77
  A 2.77 2.77 0.0 0 0 222.12 504.00
  L 38.76 504.00
  A 2.77 2.77 0.0 0 0 35.99 506.77
  L 35.99 512.23
  A 2.77 2.77 0.0 0 0 38.76 515.00
  L 222.12 515.00
  A 2.77 2.77 0.0 0 0 224.89 512.23
  L 224.89 506.77"
/>
<path stroke="#fcd791" vector-effect="non-scaling-stroke" d="
  M 316.89 562.72
  A 2.72 2.72 0.0 0 0 314.17 560.00
  L 38.73 560.00
  A 2.72 2.72 0.0 0 0 36.01 562.72
  L 36.01 568.28
  A 2.72 2.72 0.0 0 0 38.73 571.00
  L 314.17 571.00
  A 2.72 2.72 0.0 0 0 316.89 568.28
  L 316.89 562.72"
/>
<path stroke="#b3dbe4" vector-effect="non-scaling-stroke" d="
  M 758.00 34.68
  A 1.44 1.44 0.0 0 0 756.56 33.24
  L 704.44 33.24
  A 1.44 1.44 0.0 0 0 703.00 34.68
  L 703.00 314.86
  A 1.44 1.44 0.0 0 0 704.44 316.30
  L 756.56 316.30
  A 1.44 1.44 0.0 0 0 758.00 314.86
  L 758.00 34.68"
/>
</g>
<path fill="#66b7c8" d="
  M 783.31 106.00
  C 783.70 71.72 797.46 35.52 835.01 27.50
  C 872.53 19.49 909.37 27.56 924.38 66.34
  C 932.35 86.95 933.96 110.14 932.23 131.95
  A 2.23 2.22 2.2 0 1 930.01 134.00
  L 870.76 134.00
  Q 868.36 134.00 868.28 131.60
  Q 867.72 112.95 866.75 94.19
  C 866.24 84.28 855.72 85.49 851.84 92.33
  Q 849.77 95.97 849.68 102.06
  Q 848.57 169.99 850.37 252.50
  C 850.59 262.54 857.89 260.07 864.19 258.72
  Q 867.19 258.08 867.26 254.75
  Q 867.75 233.01 868.23 211.27
  C 868.31 207.80 868.40 205.30 864.05 205.09
  Q 859.76 204.89 854.94 205.04
  A 2.56 2.55 -0.9 0 1 852.30 202.49
  L 852.23 147.01
  A 2.01 2.01 0.0 0 1 854.24 145.00
  L 928.75 145.00
  A 4.25 4.25 0.0 0 1 933.00 149.25
  L 933.00 315.75
  A 3.25 3.25 0.0 0 1 929.75 319.00
  L 902.93 319.00
  A 3.47 3.47 0.0 0 1 899.67 316.71
  L 895.46 305.07
  A 1.69 1.68 59.8 0 0 892.78 304.36
  C 876.83 318.10 861.63 324.94 840.12 322.09
  A 1.51 1.51 0.0 0 0 838.42 323.73
  L 863.45 585.06
  A 1.77 1.77 0.0 0 1 861.69 587.00
  L 816.29 587.00
  Q 813.57 587.00 813.33 584.28
  L 809.97 546.02
  A 2.22 2.21 87.4 0 0 807.77 544.00
  L 781.49 544.00
  A 4.03 4.02 -88.1 0 0 777.48 547.76
  L 774.98 585.20
  A 1.93 1.93 0.0 0 1 773.05 587.00
  L 726.20 587.00
  A 2.33 2.33 0.0 0 1 723.88 584.44
  L 748.96 325.04
  A 2.25 2.25 0.0 0 1 751.20 323.00
  L 830.49 323.00
  A 1.55 1.54 -79.0 0 0 831.92 322.03
  Q 832.47 320.63 830.89 320.25
  C 794.02 311.45 784.03 272.86 783.54 240.32
  Q 782.54 173.16 783.31 106.00
  Z
  M 787.89 232.28
  C 788.01 262.93 794.59 304.74 830.08 314.39
  C 854.30 320.97 878.72 316.51 892.95 294.39
  C 894.49 292.00 896.16 292.79 897.06 295.11
  Q 901.20 305.79 905.29 316.00
  A 1.59 1.58 79.0 0 0 906.76 317.00
  L 924.29 317.00
  A 3.54 3.53 -0.1 0 0 927.83 313.46
  L 927.49 152.34
  Q 927.48 149.69 924.84 149.72
  L 862.09 150.39
  A 3.05 3.04 -0.2 0 0 859.08 153.41
  L 858.78 196.11
  A 2.73 2.72 1.9 0 0 861.35 198.85
  L 871.23 199.41
  A 2.16 2.15 89.1 0 1 873.26 201.38
  Q 875.46 227.32 871.99 253.23
  C 870.05 267.73 850.12 270.41 846.52 256.00
  Q 844.49 247.88 844.03 235.50
  C 842.76 201.70 846.10 157.09 844.42 118.31
  C 844.05 109.97 842.97 96.18 847.41 89.48
  C 852.92 81.15 868.72 77.85 871.16 91.09
  C 873.29 102.62 873.30 115.10 872.96 127.16
  A 1.79 1.79 0.0 0 0 874.75 129.00
  L 926.50 129.00
  A 2.01 2.01 0.0 0 0 928.51 126.93
  C 927.33 89.49 924.87 45.78 881.49 33.27
  C 862.40 27.76 841.05 28.28 823.26 37.27
  C 792.98 52.57 787.24 86.72 787.40 117.50
  Q 787.69 174.89 787.89 232.28
  Z
  M 794.11 365.55
  A 0.55 0.55 0.0 0 0 793.59 365.04
  L 792.36 364.98
  A 0.55 0.55 0.0 0 0 791.78 365.49
  L 781.99 501.75
  A 0.55 0.55 0.0 0 0 782.55 502.34
  L 805.18 501.84
  A 0.55 0.55 0.0 0 0 805.72 501.25
  L 794.11 365.55
  Z"
/>
<path fill="#f9af22" d="
  M 594.48 27.78
  L 593.72 32.93
  L 604.57 318.78
  Q 603.99 321.33 604.74 322.24
  L 604.34 322.80
  Q 604.04 323.23 604.06 323.75
  Q 608.60 432.70 611.97 541.68
  Q 612.29 551.93 611.92 555.69
  Q 611.33 561.73 607.89 568.33
  C 600.90 579.05 592.80 587.00 579.71 587.00
  Q 320.23 587.01 60.75 587.05
  C 42.95 587.05 24.98 581.82 19.73 562.75
  Q 16.23 550.08 17.17 533.92
  Q 18.04 518.81 18.55 503.68
  Q 26.61 267.96 35.47 32.26
  C 35.59 28.97 34.78 27.21 39.01 27.16
  Q 53.69 26.96 68.31 26.99
  C 235.40 27.32 372.76 26.57 591.29 27.21
  A 1.28 1.26 -24.8 0 1 592.10 27.50
  Q 593.03 28.28 594.48 27.78
  Z
  M 311.24 283.26
  C 388.35 285.44 443.57 217.66 453.14 146.76
  Q 453.43 144.61 454.78 143.79
  C 460.99 140.04 466.17 134.85 467.99 127.82
  C 472.75 109.37 450.48 90.62 433.69 101.08
  C 429.04 103.97 425.24 108.77 423.02 113.76
  C 418.52 123.89 423.32 133.78 431.17 140.81
  C 432.46 141.96 432.68 143.13 432.48 144.74
  Q 426.68 191.57 395.73 225.59
  C 368.84 255.14 328.33 270.07 289.14 260.29
  C 237.42 247.38 202.33 194.97 196.09 144.55
  A 2.77 2.77 0.0 0 1 196.91 142.22
  C 205.48 133.88 210.72 122.85 204.94 111.15
  Q 201.50 104.18 194.70 100.79
  C 182.27 94.57 169.81 98.61 163.49 110.77
  C 156.13 124.93 160.90 135.65 173.97 143.46
  C 174.84 143.98 175.81 145.86 176.03 146.82
  C 178.80 158.65 181.44 171.79 184.92 182.22
  C 203.39 237.56 250.77 281.55 311.24 283.26
  Z
  M 130.98 449.20
  A 2.20 2.20 0.0 0 0 128.78 447.00
  L 38.32 447.00
  A 2.20 2.20 0.0 0 0 36.12 449.20
  L 36.12 455.80
  A 2.20 2.20 0.0 0 0 38.32 458.00
  L 128.78 458.00
  A 2.20 2.20 0.0 0 0 130.98 455.80
  L 130.98 449.20
  Z
  M 224.89 506.77
  A 2.77 2.77 0.0 0 0 222.12 504.00
  L 38.76 504.00
  A 2.77 2.77 0.0 0 0 35.99 506.77
  L 35.99 512.23
  A 2.77 2.77 0.0 0 0 38.76 515.00
  L 222.12 515.00
  A 2.77 2.77 0.0 0 0 224.89 512.23
  L 224.89 506.77
  Z
  M 316.89 562.72
  A 2.72 2.72 0.0 0 0 314.17 560.00
  L 38.73 560.00
  A 2.72 2.72 0.0 0 0 36.01 562.72
  L 36.01 568.28
  A 2.72 2.72 0.0 0 0 38.73 571.00
  L 314.17 571.00
  A 2.72 2.72 0.0 0 0 316.89 568.28
  L 316.89 562.72
  Z"
/>
<path fill="#66b7c8" d="
  M 608.54 318.32
  Q 615.35 316.75 622.15 317.16
  Q 622.76 317.19 623.11 316.69
  Q 623.77 315.72 623.76 313.75
  Q 623.52 251.89 623.27 190.25
  A 2.24 2.24 0.0 0 1 625.51 188.00
  L 673.79 188.00
  Q 677.33 188.00 677.30 184.46
  L 676.89 136.94
  A 3.94 3.94 0.0 0 0 672.95 133.03
  L 627.00 132.99
  Q 623.51 132.98 623.54 129.50
  L 623.83 90.45
  A 2.47 2.47 0.0 0 1 626.30 88.00
  L 676.25 88.00
  A 3.75 3.75 0.0 0 0 680.00 84.25
  L 680.00 36.01
  Q 680.00 33.29 677.28 33.28
  L 593.72 32.93
  L 594.48 27.78
  Q 593.96 27.40 594.54 27.11
  Q 595.08 26.84 595.54 27.22
  L 596.21 27.76
  A 1.06 1.04 -24.9 0 0 596.88 28.00
  L 681.02 28.00
  Q 684.39 28.00 684.43 31.37
  Q 684.79 59.43 685.02 85.75
  C 685.07 92.03 682.15 92.98 676.41 92.98
  Q 653.80 93.02 631.23 92.99
  A 2.34 2.34 0.0 0 0 628.89 95.28
  L 628.17 124.43
  A 2.51 2.51 0.0 0 0 630.68 127.00
  L 679.25 127.00
  A 2.75 2.75 0.0 0 1 682.00 129.75
  L 682.00 188.50
  A 3.50 3.50 0.0 0 1 678.50 192.00
  L 630.90 192.00
  A 1.91 1.90 90.0 0 0 629.00 193.91
  L 629.00 315.81
  A 2.86 2.86 0.0 0 1 626.08 318.67
  L 608.54 318.32
  Z"
/>
<path fill="#66b7c8" d="
  M 763.38 317.73
  A 1.82 1.82 0.0 0 1 761.56 319.55
  L 700.82 319.55
  A 1.82 1.82 0.0 0 1 699.00 317.73
  L 699.00 29.83
  A 1.82 1.82 0.0 0 1 700.82 28.01
  L 761.56 28.01
  A 1.82 1.82 0.0 0 1 763.38 29.83
  L 763.38 317.73
  Z
  M 758.00 34.68
  A 1.44 1.44 0.0 0 0 756.56 33.24
  L 704.44 33.24
  A 1.44 1.44 0.0 0 0 703.00 34.68
  L 703.00 314.86
  A 1.44 1.44 0.0 0 0 704.44 316.30
  L 756.56 316.30
  A 1.44 1.44 0.0 0 0 758.00 314.86
  L 758.00 34.68
  Z"
/>
<path fill="#ffffff" d="
  M 830.08 314.39
  C 794.59 304.74 788.01 262.93 787.89 232.28
  Q 787.69 174.89 787.40 117.50
  C 787.24 86.72 792.98 52.57 823.26 37.27
  C 841.05 28.28 862.40 27.76 881.49 33.27
  C 924.87 45.78 927.33 89.49 928.51 126.93
  A 2.01 2.01 0.0 0 1 926.50 129.00
  L 874.75 129.00
  A 1.79 1.79 0.0 0 1 872.96 127.16
  C 873.30 115.10 873.29 102.62 871.16 91.09
  C 868.72 77.85 852.92 81.15 847.41 89.48
  C 842.97 96.18 844.05 109.97 844.42 118.31
  C 846.10 157.09 842.76 201.70 844.03 235.50
  Q 844.49 247.88 846.52 256.00
  C 850.12 270.41 870.05 267.73 871.99 253.23
  Q 875.46 227.32 873.26 201.38
  A 2.16 2.15 89.1 0 0 871.23 199.41
  L 861.35 198.85
  A 2.73 2.72 1.9 0 1 858.78 196.11
  L 859.08 153.41
  A 3.05 3.04 -0.2 0 1 862.09 150.39
  L 924.84 149.72
  Q 927.48 149.69 927.49 152.34
  L 927.83 313.46
  A 3.54 3.53 -0.1 0 1 924.29 317.00
  L 906.76 317.00
  A 1.59 1.58 79.0 0 1 905.29 316.00
  Q 901.20 305.79 897.06 295.11
  C 896.16 292.79 894.49 292.00 892.95 294.39
  C 878.72 316.51 854.30 320.97 830.08 314.39
  Z"
/>
<path fill="#ffffff" d="
  M 593.72 32.93
  L 677.28 33.28
  Q 680.00 33.29 680.00 36.01
  L 680.00 84.25
  A 3.75 3.75 0.0 0 1 676.25 88.00
  L 626.30 88.00
  A 2.47 2.47 0.0 0 0 623.83 90.45
  L 623.54 129.50
  Q 623.51 132.98 627.00 132.99
  L 672.95 133.03
  A 3.94 3.94 0.0 0 1 676.89 136.94
  L 677.30 184.46
  Q 677.33 188.00 673.79 188.00
  L 625.51 188.00
  A 2.24 2.24 0.0 0 0 623.27 190.25
  Q 623.52 251.89 623.76 313.75
  Q 623.77 315.72 623.11 316.69
  Q 622.76 317.19 622.15 317.16
  Q 615.35 316.75 608.54 318.32
  Q 607.37 317.40 604.57 318.78
  L 593.72 32.93
  Z"
/>
<rect fill="#ffffff" x="703.00" y="33.24" width="55.00" height="283.06" rx="1.44"/>
<path fill="#66b7c8" d="
  M 604.74 322.24
  Q 605.31 322.96 605.81 322.94
  Q 613.83 322.62 621.85 322.32
  C 625.77 322.17 628.74 321.55 629.21 326.06
  Q 638.34 412.88 647.53 499.53
  A 0.51 0.51 0.0 0 0 648.15 499.97
  Q 648.41 499.90 648.45 499.50
  Q 656.81 412.15 665.10 325.49
  A 2.39 2.39 0.0 0 1 667.42 323.33
  L 712.24 322.24
  A 2.89 2.89 0.0 0 1 715.18 325.48
  L 683.39 584.86
  A 2.44 2.43 3.5 0 1 680.97 587.00
  L 613.29 587.00
  A 2.59 2.58 85.1 0 1 610.75 584.85
  L 607.89 568.33
  Q 611.33 561.73 611.92 555.69
  Q 612.29 551.93 611.97 541.68
  Q 608.60 432.70 604.06 323.75
  Q 604.04 323.23 604.34 322.80
  L 604.74 322.24
  Z"
/>
<path fill="#66b7c8" d="
  M 880.00 584.70
  L 880.00 325.34
  A 2.30 2.30 0.0 0 1 882.29 323.04
  L 929.96 322.91
  A 2.30 2.30 0.0 0 1 932.27 325.21
  L 931.91 539.77
  A 2.30 2.30 0.0 0 0 934.22 542.08
  L 984.70 541.97
  A 2.30 2.30 0.0 0 1 987.00 544.27
  L 987.00 584.70
  A 2.30 2.30 0.0 0 1 984.70 587.00
  L 882.30 587.00
  A 2.30 2.30 0.0 0 1 880.00 584.70
  Z"
/>
<rect fill="#ffffff" x="36.12" y="447.00" width="94.86" height="11.00" rx="2.20"/>
<rect fill="#ffffff" x="35.99" y="504.00" width="188.90" height="11.00" rx="2.77"/>
<rect fill="#ffffff" x="36.01" y="560.00" width="280.88" height="11.00" rx="2.72"/>
</svg>
